<svg width="195" height="39" viewBox="0 0 195 39" fill="none" xmlns="http://www.w3.org/2000/svg">
<path fill-rule="evenodd" clip-rule="evenodd" d="M58.6858 26.4729C57.6812 28.2154 56.1731 29.0867 54.1667 29.0867C52.1764 29.0867 50.687 28.2235 49.6959 26.4971L44.4268 17.315V12.0846H48.3243V16.2684L53.0765 24.5091C53.1783 24.733 53.2934 24.911 53.414 25.0297C53.5506 25.1376 53.7194 25.1862 53.9096 25.1862H54.1667C54.5846 25.1862 54.8686 25.1053 55.0239 24.9542C55.0909 24.8679 55.1873 24.7249 55.3079 24.5334L60.0091 16.3223V12.0846H63.9094V17.3447L58.6858 26.4729Z" fill="#9E9E9E"/>
<path d="M71.5431 12.0845H67.6455V29.0839H71.5431V12.0845Z" fill="#9E9E9E"/>
<path fill-rule="evenodd" clip-rule="evenodd" d="M88.2484 22.5346C88.093 22.5535 87.5546 22.5589 86.6385 22.5589H79.2612C77.8227 22.5589 76.5958 22.0545 75.5725 21.0429C74.5707 20.0152 74.0671 18.7771 74.0671 17.3312C74.0671 15.8854 74.5707 14.6526 75.5725 13.6438C76.5958 12.6133 77.8227 12.0981 79.2612 12.0981L93.547 12.0739V15.9987H79.2612C78.9156 15.9987 78.6129 16.1362 78.3531 16.4168C78.0959 16.6757 77.9647 16.9805 77.9647 17.3339C77.9647 17.6819 78.0932 17.9867 78.3531 18.2483C78.6129 18.51 78.9156 18.6395 79.2612 18.6395H88.2484C89.703 18.6395 90.9352 19.152 91.9344 20.1797C92.9443 21.1967 93.4452 22.4294 93.4452 23.8968C93.4452 25.3454 92.9336 26.57 91.9103 27.5843C90.9084 28.5958 89.6842 29.1003 88.2484 29.1003H74.043V25.1485H88.2484C88.6127 25.1485 88.9154 25.0271 89.1619 24.7816C89.419 24.5388 89.5503 24.2313 89.5503 23.8672C89.5503 23.5003 89.4217 23.1955 89.1619 22.9527C88.9154 22.6884 88.6127 22.5562 88.2484 22.5562V22.5346Z" fill="#9E9E9E"/>
<path d="M99.9728 12.0845H96.0752V29.0839H99.9728V12.0845Z" fill="#9E9E9E"/>
<path fill-rule="evenodd" clip-rule="evenodd" d="M116.68 25.1646C117.044 25.1646 117.347 25.0378 117.591 24.7977C117.848 24.5549 117.979 24.2474 117.979 23.8806V17.315C117.979 16.673 117.623 16.2522 116.91 16.0606C116.876 16.0606 116.841 16.0606 116.809 16.0606C116.736 16.0445 116.693 16.0337 116.677 16.0337L107.586 16.0067C107.396 16.0579 107.205 16.147 107.012 16.2683C106.533 16.53 106.287 16.8888 106.287 17.3446V23.8563C106.287 24.1881 106.399 24.4848 106.624 24.7465C106.849 24.9892 107.128 25.1403 107.457 25.1889H107.586L116.68 25.1646ZM107.588 29.0867C106.15 29.0867 104.918 28.5823 103.9 27.5707C102.895 26.5592 102.392 25.3318 102.392 23.8833V17.3473C102.392 15.8988 102.893 14.6687 103.9 13.6572C104.918 12.6295 106.15 12.1169 107.588 12.1169L116.68 12.09C118.116 12.09 119.34 12.6052 120.342 13.6329C121.365 14.6607 121.874 15.9015 121.874 17.35V23.886C121.874 25.3345 121.365 26.5619 120.342 27.5734C119.34 28.585 118.116 29.0894 116.68 29.0894H107.588V29.0867Z" fill="#9E9E9E"/>
<path fill-rule="evenodd" clip-rule="evenodd" d="M129.52 16.0093H123.026V12.0845H139.908V16.0093H133.415V29.0866H129.52V16.0093Z" fill="#9E9E9E"/>
<path fill-rule="evenodd" clip-rule="evenodd" d="M146.133 25.1645H157.821V29.0866H142.238V12.0845H157.663V16.0093H146.133V18.6231H157.17V22.5479H146.133V25.1645Z" fill="#9E9E9E"/>
<path fill-rule="evenodd" clip-rule="evenodd" d="M175.41 29.0867H165.022C163.586 29.0867 162.357 28.5823 161.336 27.5707C160.329 26.5592 159.828 25.3318 159.828 23.8833V17.3473C159.828 15.8988 160.329 14.6687 161.336 13.6572C162.357 12.6295 163.586 12.1169 165.022 12.1169L175.41 12.09V16.0121H165.022C164.848 16.0633 164.677 16.1254 164.503 16.1955C164.35 16.2656 164.192 16.3789 164.039 16.5354C163.83 16.7809 163.726 17.0479 163.726 17.35V23.8617C163.726 24.2286 163.844 24.5415 164.087 24.8031C164.347 25.0648 164.658 25.1942 165.022 25.1942L175.41 25.1727V29.0867Z" fill="#9E9E9E"/>
<path fill-rule="evenodd" clip-rule="evenodd" d="M191.105 22.5479H182.016V29.0866H178.118V12.0845H182.016V18.6231H191.105V12.0845H195V29.0866H191.105V22.5479Z" fill="#9E9E9E"/>
<path d="M38.7322 19.2573C38.6866 15.6346 37.6607 12.2519 35.9088 9.36295C35.0703 7.97376 34.0577 6.69516 32.9086 5.56492C31.7433 4.4158 30.4361 3.41774 29.0137 2.58962C29.0137 2.58962 29.0137 2.58962 29.011 2.58692C26.1554 0.930676 22.8391 -0.0080405 19.3085 5.18923e-05C19.2817 5.18923e-05 19.2576 0.00275199 19.2308 0.00275199C15.6654 0.0270292 12.3384 1.017 9.48282 2.72719C8.0738 3.5742 6.78264 4.58844 5.63345 5.75644C4.49766 6.90017 3.50383 8.19226 2.68413 9.59494C0.975087 12.5082 -0.00533567 15.9043 2.18429e-05 19.5297C2.18429e-05 19.5648 2.18429e-05 19.6052 2.18429e-05 19.6376C0.0134156 21.2183 0.206285 22.7559 0.575953 24.2233C0.632207 24.4715 0.696498 24.7169 0.768824 24.9624C1.16528 26.3543 1.71978 27.6787 2.40019 28.9169C2.50466 29.1057 2.60914 29.2945 2.72432 29.4807C3.55474 30.8887 4.56462 32.1835 5.71381 33.3272C6.87371 34.4979 8.18363 35.5149 9.61141 36.3511C9.61408 36.3538 9.61676 36.3538 9.62212 36.3565C9.95161 36.5507 10.2891 36.7368 10.6293 36.9068C10.7713 36.9769 10.9079 37.0497 11.0472 37.1172C11.1758 37.1765 11.3017 37.2386 11.4303 37.2952C12.1857 37.6378 12.9732 37.9318 13.7769 38.1746C14.0474 38.2582 14.3207 38.3337 14.5993 38.4039C15.7002 38.6898 16.8414 38.8732 18.0093 38.9514C18.3388 38.9784 18.6629 38.9919 18.9978 38.9946C19.1397 38.9973 19.2871 39 19.4317 39C19.4532 39 19.4773 38.9973 19.4987 38.9973C23.1016 38.9703 26.4635 37.9588 29.3378 36.2135C30.7602 35.3584 32.0594 34.3199 33.2032 33.1303C34.339 31.9677 35.3221 30.6594 36.1365 29.2406C37.808 26.3381 38.7509 22.9609 38.7268 19.3625C38.7322 19.3328 38.7322 19.2923 38.7322 19.2573ZM2.87701 19.5027C2.87701 10.3313 10.2597 2.89713 19.3674 2.89713C22.3569 2.89713 25.1589 3.69558 27.5751 5.09557L27.0662 5.98034H27.0689L27.0394 6.0235L26.0724 7.7148C30.1575 10.0346 32.9166 14.4423 32.9166 19.5027C32.9166 26.972 26.9055 33.0278 19.4853 33.0278C19.4692 33.0278 19.4505 33.0278 19.4344 33.0278C16.9485 33.017 14.6207 32.3265 12.6304 31.1288C12.6277 31.1288 12.6277 31.1288 12.6277 31.1261L11.6901 32.7608L11.0633 33.8478C6.16384 30.9697 2.87701 25.6233 2.87701 19.5027Z" fill="#D91F2E"/>
<path d="M19.435 30.7835V28.0186C24.0746 27.9835 27.8249 24.1828 27.8249 19.5027C27.8249 17.1209 26.8552 14.9683 25.2908 13.4253L27.2329 11.4697C26.5605 10.798 25.7971 10.2126 24.9747 9.73519C23.3085 8.76141 21.3744 8.20843 19.3091 8.21652C19.3011 8.21652 19.2931 8.21652 19.2877 8.21652C19.2716 8.21652 19.2529 8.21652 19.2368 8.21922C19.1109 8.21922 18.9823 8.22461 18.8591 8.2327C17.0965 8.32442 15.3339 8.82885 13.7052 9.79185L13.6944 9.77296C13.673 9.78375 13.6436 9.79724 13.6221 9.81612C12.8024 10.3098 12.055 10.9005 11.3907 11.5803C10.7344 12.2465 10.1639 12.9991 9.68971 13.8192C8.70393 15.5105 8.14675 17.485 8.1655 19.5836C8.17889 21.685 8.76286 23.6514 9.77007 25.3238C10.2549 26.1358 10.8389 26.8776 11.5005 27.5358C12.1783 28.2074 12.9337 28.7874 13.7587 29.2702C15.4276 30.2467 17.367 30.797 19.435 30.7835ZM23.9139 14.8631C24.2996 15.2434 24.6345 15.6723 24.9104 16.1417C25.4917 17.1101 25.8319 18.243 25.8399 19.4596C25.848 20.668 25.5238 21.809 24.9559 22.7828C24.6854 23.2576 24.3559 23.6892 23.9755 24.0749C23.5898 24.4661 23.1558 24.8086 22.6844 25.0946C21.7334 25.6691 20.6244 26.0009 19.435 26.0117C19.4297 26.0117 19.4216 26.0117 19.4163 26.0117H19.4136C18.2135 26.0198 17.0911 25.6988 16.1241 25.135C15.6499 24.8599 15.2106 24.5227 14.8249 24.137C14.4418 23.7566 14.107 23.3277 13.8257 22.8584C13.2471 21.8927 12.9069 20.757 12.8989 19.5432C12.8935 18.3266 13.215 17.191 13.7802 16.2145C14.0507 15.7425 14.3802 15.3082 14.7606 14.9224C15.1437 14.5313 15.5776 14.1887 16.0491 13.9055C17.0054 13.3282 18.1198 12.991 19.3225 12.9829H19.3252C20.5199 12.9749 21.6396 13.2931 22.6067 13.8569C23.0728 14.1267 23.5014 14.4585 23.8871 14.8334C23.8952 14.8469 23.9059 14.8577 23.9139 14.8631Z" fill="#D91F2E"/>
</svg>
